<svg width="240" height="240" viewBox="0 0 240 240" fill="none" xmlns="http://www.w3.org/2000/svg">
<rect width="240" height="240" fill="black"/>
<g filter="url(#filter0_b_5:16)">
<g opacity="0.925">
<path d="M55.3949 22.6394L226.296 149.625L184.03 217.617L13.1292 89.6316L55.3949 22.6394Z" fill="url(#paint0_linear_5:16)"/>
<path d="M226.296 149.625C211.595 172.622 161.978 163.623 115.118 127.627C67.3396 92.6313 41.6126 45.6367 55.3949 22.6394C70.0961 -0.35793 119.712 8.64102 166.572 44.6368C214.351 78.6329 240.078 126.627 226.296 149.625Z" fill="url(#paint1_linear_5:16)"/>
<path d="M184.03 216.617C169.329 239.614 119.712 230.615 72.8525 194.619C25.9926 158.624 -0.653186 112.629 14.048 88.6317C28.7491 65.6344 78.3655 74.6333 125.225 110.629C172.085 146.625 197.812 193.62 184.03 216.617V216.617Z" fill="url(#paint2_linear_5:16)"/>
<path d="M226.296 149.625L184.03 217.617C169.329 240.614 119.712 230.615 72.8525 195.619C63.6643 188.62 55.3949 181.621 47.1255 173.622C53.5573 172.622 61.8267 168.622 70.0961 158.624C84.7972 141.626 92.1478 137.626 98.5795 138.626C105.011 138.626 112.362 145.625 124.307 162.623C136.251 179.621 152.79 184.621 162.897 175.622C163.816 174.622 164.735 174.622 165.653 173.622C173.923 166.623 176.679 163.623 192.299 131.627C195.975 123.628 208.838 110.629 226.296 116.628C230.89 129.627 230.89 140.626 226.296 149.625V149.625Z" fill="#0E0F23" fill-opacity="0.55"/>
<path fill-rule="evenodd" clip-rule="evenodd" d="M219.864 145.625C207 165.623 161.978 155.624 118.794 122.628C74.6902 89.6316 48.9632 47.6365 61.8267 27.6388C74.6902 7.64114 119.712 17.64 162.897 50.6361C206.082 83.6323 231.809 125.627 219.864 145.625V145.625ZM179.436 115.629C173.004 125.627 150.952 120.628 128.901 104.63C107.768 88.6317 94.9042 67.6342 101.336 57.6353C107.768 47.6365 129.819 52.6359 151.871 68.634C173.004 84.6322 185.868 105.63 179.436 115.629V115.629Z" fill="white" fill-opacity="0.92"/>
<path d="M51.7196 45.6367C51.7196 44.6368 50.8008 43.637 49.882 44.6368C48.9632 45.6367 48.0443 45.6367 48.0443 46.6366C48.9632 49.6363 49.882 51.636 49.882 53.6358C49.882 54.6357 50.8008 55.6356 51.7196 54.6357C52.6385 54.6357 53.5573 53.6358 52.6385 52.6359C52.6385 50.6361 52.6385 48.6364 51.7196 45.6367Z" fill="white" fill-opacity="0.92"/>
<path d="M56.3137 61.6349C56.3137 60.635 55.3949 59.6351 54.4761 60.635C53.5573 61.6349 53.5573 61.6349 53.5573 62.6347C63.6643 87.6318 84.7972 114.629 112.362 134.626C113.281 135.626 114.199 134.626 115.118 134.626C116.037 133.626 115.118 132.627 115.118 131.627C86.6348 111.629 66.4208 85.6321 56.3137 61.6349V61.6349Z" fill="white" fill-opacity="0.92"/>
<path d="M167.491 159.623C166.572 159.623 165.654 159.623 165.654 160.623C165.654 161.623 165.654 162.623 166.572 162.623C169.329 163.623 173.004 164.623 175.761 165.623C176.679 165.623 177.598 165.623 177.598 164.623C177.598 163.623 177.598 162.623 176.679 162.623C173.923 161.623 170.248 160.623 167.491 159.623Z" fill="white" fill-opacity="0.92"/>
<path d="M184.03 163.623C183.111 163.623 182.192 164.623 182.192 165.623C182.192 166.623 183.111 167.622 184.03 167.622C191.38 168.622 199.65 169.622 206.082 168.622C207 168.622 207.919 167.623 207.919 166.623C207.919 165.623 207 164.623 206.082 164.623C198.731 165.623 191.38 164.623 184.03 163.623Z" fill="white" fill-opacity="0.92"/>
</g>
</g>
<defs>
<filter id="filter0_b_5:16" x="6" y="6" width="228" height="228" filterUnits="userSpaceOnUse" color-interpolation-filters="sRGB">
<feFlood flood-opacity="0" result="BackgroundImageFix"/>
<feGaussianBlur in="BackgroundImage" stdDeviation="2"/>
<feComposite in2="SourceAlpha" operator="in" result="effect1_backgroundBlur_5:16"/>
<feBlend mode="normal" in="SourceGraphic" in2="effect1_backgroundBlur_5:16" result="shape"/>
</filter>
<linearGradient id="paint0_linear_5:16" x1="88.8786" y1="4.58449" x2="128.444" y2="129.434" gradientUnits="userSpaceOnUse">
<stop stop-color="#03B8FF"/>
<stop offset="1" stop-color="#FA52A0"/>
</linearGradient>
<linearGradient id="paint1_linear_5:16" x1="116.789" y1="-4.26148" x2="156.356" y2="120.589" gradientUnits="userSpaceOnUse">
<stop stop-color="#03B8FF"/>
<stop offset="1" stop-color="#FA52A0"/>
</linearGradient>
<linearGradient id="paint2_linear_5:16" x1="61.0549" y1="13.4015" x2="100.622" y2="138.252" gradientUnits="userSpaceOnUse">
<stop stop-color="#0E0F23"/>
<stop offset="1" stop-color="#0E0F23"/>
</linearGradient>
</defs>
</svg>
