<svg width="14" height="16" viewBox="0 0 14 16" fill="none" xmlns="http://www.w3.org/2000/svg">
<path d="M2.88904 1.80635L13.7645 10.4644L11.0749 15.1003L0.199402 6.374L2.88904 1.80635Z" fill="url(#paint0_linear)"/>
<path d="M13.7646 10.4644C12.829 12.0324 9.67162 11.4189 6.68963 8.96461C3.64916 6.57853 2.01199 3.37436 2.88905 1.80636C3.82457 0.238358 6.98198 0.851923 9.96397 3.30618C13.0044 5.62409 14.6416 8.89644 13.7646 10.4644Z" fill="url(#paint1_linear)"/>
<path d="M11.0749 15.0321C10.1394 16.6001 6.98197 15.9865 3.99998 13.5323C1.01799 11.078 -0.677655 7.94201 0.257872 6.30584C1.1934 4.73784 4.3508 5.3514 7.3328 7.80566C10.3148 10.2599 11.952 13.4641 11.0749 15.0321V15.0321Z" fill="url(#paint2_linear)"/>
<path d="M13.7645 10.4644L11.0749 15.1003C10.1394 16.6683 6.98197 15.9865 3.99998 13.6004C3.41528 13.1232 2.88904 12.646 2.36281 12.1006C2.7721 12.0324 3.29834 11.7597 3.82457 11.078C4.7601 9.91905 5.22786 9.64636 5.63715 9.71453C6.04645 9.71453 6.51421 10.1917 7.27433 11.3507C8.03444 12.5097 9.08691 12.8505 9.73009 12.237C9.78856 12.1688 9.84703 12.1688 9.9055 12.1006C10.4317 11.6234 10.6071 11.4189 11.6011 9.23731C11.835 8.69192 12.6536 7.80566 13.7645 8.2147C14.0569 9.10096 14.0569 9.85088 13.7645 10.4644V10.4644Z" fill="#0E0F23"/>
<path fill-rule="evenodd" clip-rule="evenodd" d="M13.3553 10.1918C12.5367 11.5552 9.67162 10.8735 6.92351 8.62375C4.11693 6.37401 2.47975 3.51071 3.29834 2.14723C4.11693 0.783756 6.98198 1.4655 9.73009 3.71523C12.4782 5.96497 14.1154 8.82827 13.3553 10.1918V10.1918ZM10.7826 8.14654C10.3733 8.82827 8.96998 8.48741 7.56668 7.39662C6.22186 6.30584 5.40328 4.87419 5.81257 4.19245C6.22186 3.51071 7.62515 3.85158 9.02845 4.94236C10.3733 6.03315 11.1919 7.4648 10.7826 8.14654V8.14654Z" fill="white"/>
<path d="M2.65516 3.37435C2.65516 3.30618 2.59669 3.238 2.53822 3.30618C2.47975 3.37435 2.42128 3.37435 2.42128 3.44253C2.47975 3.64705 2.53822 3.78339 2.53822 3.91974C2.53822 3.98792 2.59669 4.05609 2.65516 3.98792C2.71363 3.98792 2.7721 3.91974 2.71363 3.85157C2.71363 3.71522 2.71363 3.57887 2.65516 3.37435Z" fill="white"/>
<path d="M2.94751 4.46514C2.94751 4.39697 2.88904 4.32879 2.83057 4.39697C2.77209 4.46514 2.77209 4.46514 2.77209 4.53332C3.41527 6.23766 4.76009 8.07836 6.5142 9.44183C6.57267 9.51001 6.63114 9.44183 6.68962 9.44183C6.74809 9.37366 6.68962 9.30549 6.68962 9.23731C4.87703 7.87384 3.59068 6.10131 2.94751 4.46514V4.46514Z" fill="white"/>
<path d="M10.0224 11.1462C9.96397 11.1462 9.9055 11.1462 9.9055 11.2144C9.9055 11.2825 9.9055 11.3507 9.96397 11.3507C10.1394 11.4189 10.3733 11.487 10.5487 11.5552C10.6071 11.5552 10.6656 11.5552 10.6656 11.487C10.6656 11.4189 10.6656 11.3507 10.6071 11.3507C10.4317 11.2825 10.1979 11.2144 10.0224 11.1462Z" fill="white"/>
<path d="M11.0749 11.4189C11.0164 11.4189 10.958 11.487 10.958 11.5552C10.958 11.6234 11.0164 11.6916 11.0749 11.6916C11.5427 11.7597 12.0689 11.8279 12.4782 11.7597C12.5367 11.7597 12.5951 11.6916 12.5951 11.6234C12.5951 11.5552 12.5367 11.487 12.4782 11.487C12.0104 11.5552 11.5427 11.487 11.0749 11.4189Z" fill="white"/>
<defs>
<linearGradient id="paint0_linear" x1="5.01982" y1="0.575335" x2="7.87167" y2="8.97436" gradientUnits="userSpaceOnUse">
<stop stop-color="#03B8FF"/>
<stop offset="1" stop-color="#FA52A0"/>
</linearGradient>
<linearGradient id="paint1_linear" x1="6.79593" y1="-0.0277933" x2="9.64784" y2="8.37129" gradientUnits="userSpaceOnUse">
<stop stop-color="#03B8FF"/>
<stop offset="1" stop-color="#FA52A0"/>
</linearGradient>
<linearGradient id="paint2_linear" x1="3.24922" y1="1.1765" x2="6.10114" y2="9.57558" gradientUnits="userSpaceOnUse">
<stop stop-color="#0E0F23"/>
<stop offset="1" stop-color="#0E0F23"/>
</linearGradient>
</defs>
</svg>
